PathFileType	4	(X/Y/Z)	C:\Git\powerlifing_model_clean\simulations\Test1\Session1\HC835B_STD_0001\marker_experimental.trc
DataRate	CameraRate	NumFrames	NumMarkers	Units	OrigDataRate	OrigDataStartFrame	OrigNumFrames
240.000000	240.000000	4	54	mm	240.000000	294	337
Frame#	Time	RPSI			LPSI			RASI			LASI			RGT			RTH1			RTH2			RTH3			RTH4			RLK			RMK			RSK1			RSK2			RSK3			RSK4			RLA			RMA			RCAL1			RCAL2			RCAL3			RST			RPT			RTN			RFMB			RSMB			RVMB			RFMH			RSMH			RVMH			RPM			LGT			LTH1			LTH2			LTH3			LTH4			LLK			LMK			LSK1			LSK2			LSK3			LSK4			LLA			LMA			LCAL1			LCAL2			LCAL3			LFMH			LVMH			RHJC			LHJC			RKJC			LKJC			RAJC			LAJC
		X1	Y1	Z1	X2	Y2	Z2	X3	Y3	Z3	X4	Y4	Z4	X5	Y5	Z5	X6	Y6	Z6	X7	Y7	Z7	X8	Y8	Z8	X9	Y9	Z9	X10	Y10	Z10	X11	Y11	Z11	X12	Y12	Z12	X13	Y13	Z13	X14	Y14	Z14	X15	Y15	Z15	X16	Y16	Z16	X17	Y17	Z17	X18	Y18	Z18	X19	Y19	Z19	X20	Y20	Z20	X21	Y21	Z21	X22	Y22	Z22	X23	Y23	Z23	X24	Y24	Z24	X25	Y25	Z25	X26	Y26	Z26	X27	Y27	Z27	X28	Y28	Z28	X29	Y29	Z29	X30	Y30	Z30	X31	Y31	Z31	X32	Y32	Z32	X33	Y33	Z33	X34	Y34	Z34	X35	Y35	Z35	X36	Y36	Z36	X37	Y37	Z37	X38	Y38	Z38	X39	Y39	Z39	X40	Y40	Z40	X41	Y41	Z41	X42	Y42	Z42	X43	Y43	Z43	X44	Y44	Z44	X45	Y45	Z45	X46	Y46	Z46	X47	Y47	Z47	X48	Y48	Z48	X49	Y49	Z49	X50	Y50	Z50	X51	Y51	Z51	X52	Y52	Z52	X53	Y53	Z53	X54	Y54	Z54
295	1.225000	495.482605	1162.732544	-359.636932	386.955170	1160.196777	-356.039368	555.351013	1104.903076	-563.431702	316.113098	1100.573364	-560.988464	637.573608	1023.808472	-454.608002	639.868958	836.229309	-464.722931	627.867126	819.002563	-521.794434	630.156677	753.374939	-479.271790	606.930603	736.982788	-530.488708	609.437988	552.644104	-460.173370	483.737000	538.626709	-449.926422	613.075439	307.668793	-362.174835	615.095886	287.952698	-420.478241	611.489441	249.830872	-373.059265	600.467285	231.813431	-429.038422	605.333618	114.893356	-359.759003	521.991760	124.248055	-404.636993	560.291687	95.850662	-305.030548	528.726685	58.491726	-314.530823	592.882324	59.134750	-308.916656	517.403625	76.437805	-380.899170	618.206909	72.320442	-367.317169	530.464111	94.547539	-438.626160	537.025818	78.126709	-469.633759	586.289612	101.720528	-477.700714	632.151062	47.723003	-410.338226	537.228088	50.634659	-527.488831	592.028870	65.540665	-537.719299	648.310730	42.225266	-490.611328	582.655762	52.985611	-597.010803	245.005188	1012.870728	-449.309845	239.399017	830.984314	-447.339142	242.425644	813.506592	-505.455658	243.349991	746.260071	-460.251221	263.153595	730.661316	-516.015320	265.783112	564.154480	-443.806152	396.807281	553.611755	-444.964783	257.633423	300.640381	-355.547638	251.419998	279.446167	-404.074646	257.385254	245.288330	-368.663971	267.601593	225.844742	-420.752655	259.455902	115.630936	-363.504303	349.476746	123.829025	-401.060455	306.738373	95.134018	-303.545837	275.882690	58.545433	-303.701080	334.247955	56.702362	-308.133331	344.669861	55.053993	-530.741211	229.702515	41.482746	-493.032013	523.944050	1041.640617	-481.713945	351.450178	1038.518835	-479.952336	546.587494	545.635406	-455.049896	331.295197	558.883118	-444.385468	563.662689	119.570705	-382.197998	304.466324	119.729980	-382.282379
296	1.229167	495.499878	1162.750977	-359.666412	386.975220	1160.196899	-356.077301	555.360901	1104.917847	-563.428467	316.129120	1100.565186	-560.986938	637.557983	1023.806091	-454.627991	639.895691	836.245911	-464.737549	627.864014	819.041321	-521.807251	630.166870	753.366882	-479.291107	606.949219	736.990906	-530.486694	609.431702	552.625793	-460.176086	483.746094	538.644226	-449.948242	613.088074	307.676056	-362.183289	615.095337	287.962128	-420.482025	611.450317	249.829300	-373.062164	600.457092	231.788895	-429.026672	605.312500	114.904785	-359.706818	521.994141	124.255478	-404.660217	560.308289	95.872406	-305.029541	528.700806	58.484337	-314.544556	592.883911	59.134174	-308.924530	517.406189	76.392822	-380.913147	618.211792	72.327721	-367.326538	530.481262	94.556976	-438.647491	537.041321	78.106941	-469.659393	586.297302	101.721901	-477.698364	632.113586	47.716370	-410.340454	537.297119	50.714340	-527.502441	592.032898	65.528221	-537.741455	648.301147	42.203907	-490.607727	582.646301	52.987148	-597.006470	244.993973	1012.859009	-449.318848	239.397491	830.975952	-447.340271	242.426971	813.505920	-505.458557	243.315872	746.265381	-460.225220	263.150604	730.681885	-516.029297	265.775757	564.161682	-443.805786	396.797302	553.594788	-444.948425	257.720886	300.570740	-355.564941	251.434631	279.403839	-404.041840	257.379425	245.265366	-368.640869	267.602051	225.854019	-420.739380	259.461945	115.613159	-363.520050	349.468323	123.832558	-401.074310	306.749115	95.151726	-303.532928	275.890808	58.547070	-303.688965	334.231781	56.722534	-308.135712	344.686157	55.056160	-530.762939	229.691696	41.459175	-493.046234	523.960313	1041.657574	-481.714590	351.470513	1038.519238	-479.954211	546.588898	545.635010	-455.062164	331.286530	558.878235	-444.377106	563.653320	119.580132	-382.183517	304.465134	119.722858	-382.297180
297	1.233333	495.491913	1162.747070	-359.660156	386.955414	1160.199097	-356.077240	555.403809	1104.915405	-563.451416	316.142487	1100.550903	-560.998474	637.575806	1023.815491	-454.638367	639.863892	836.240234	-464.743011	627.900024	819.021667	-521.832764	630.162537	753.382751	-479.297546	606.955261	736.999939	-530.516052	609.434692	552.641052	-460.182892	483.757507	538.639893	-449.940308	613.084473	307.685120	-362.170563	615.118042	287.963257	-420.503693	611.466675	249.829803	-373.086548	600.458984	231.808380	-429.025543	605.291626	114.888611	-359.721283	522.011414	124.254608	-404.637146	560.297913	95.841324	-305.031616	528.707642	58.472103	-314.531006	592.888184	59.134407	-308.922577	517.394897	76.394005	-380.866760	618.210938	72.319328	-367.313538	530.463867	94.545692	-438.615021	537.058044	78.102448	-469.669250	586.281128	101.703125	-477.705933	632.169922	47.759918	-410.316498	537.285034	50.583801	-527.461548	592.040833	65.531013	-537.710876	648.320313	42.209900	-490.615845	582.669739	52.970707	-597.006897	245.020279	1012.845093	-449.349487	239.412781	830.991089	-447.335083	242.428253	813.497620	-505.453247	243.345505	746.262756	-460.232330	263.120209	730.680359	-516.002930	265.782288	564.177002	-443.784149	396.776642	553.579163	-444.946625	257.647736	300.595215	-355.550781	251.429962	279.439545	-404.036530	257.399384	245.288574	-368.650269	267.605530	225.820389	-420.733673	259.455109	115.595886	-363.533295	349.473694	123.837296	-401.074341	306.768250	95.178650	-303.505981	275.896118	58.543995	-303.694580	334.243591	56.694069	-308.143280	344.678223	55.049824	-530.774536	229.672165	41.435532	-493.033875	524.005123	1041.647176	-481.728142	351.495846	1038.500336	-479.959552	546.596100	545.640472	-455.061600	331.279465	558.878082	-444.365387	563.651520	119.571609	-382.179214	304.464401	119.716591	-382.303818
298	1.237500	495.483978	1162.742920	-359.685394	386.977264	1160.199463	-356.096893	555.377625	1104.920288	-563.469421	316.117188	1100.581055	-561.010498	637.549622	1023.831299	-454.674957	639.853638	836.231873	-464.768341	627.867126	818.997986	-521.840576	630.173706	753.358032	-479.305725	606.953613	736.974182	-530.537415	609.427979	552.633118	-460.190186	483.754761	538.672485	-449.953796	613.072632	307.670410	-362.176392	615.132019	287.946533	-420.485443	611.474182	249.835388	-373.070984	600.468933	231.802094	-429.013641	605.325134	115.007828	-359.604401	522.006592	124.258148	-404.622070	560.292480	95.838211	-305.031616	528.722473	58.478348	-314.532043	592.883362	59.150593	-308.915344	517.415894	76.390587	-380.860077	618.218506	72.317055	-367.332306	530.490173	94.534149	-438.628174	537.049866	78.114304	-469.640106	586.294800	101.722198	-477.704102	632.096130	47.712215	-410.330200	537.306580	50.570446	-527.502563	592.017883	65.543602	-537.728394	648.302063	42.199257	-490.616089	582.663025	52.987431	-597.022827	245.020187	1012.858276	-449.320129	239.407974	830.987366	-447.313660	242.422928	813.510925	-505.448792	243.316467	746.304382	-460.230286	263.128113	730.669373	-515.992554	265.790436	564.173767	-443.777374	396.813263	553.609436	-444.930786	257.645905	300.672913	-355.489166	251.427856	279.408691	-404.054230	257.387207	245.281418	-368.629425	267.583130	225.810883	-420.734192	259.460846	115.615753	-363.509155	349.465240	123.870262	-401.080414	306.757507	95.160942	-303.518860	275.913208	58.542934	-303.687836	334.243500	56.715710	-308.134583	344.699432	55.067436	-530.766541	229.709244	41.458252	-493.037994	523.974572	1041.648651	-481.753029	351.465855	1038.520028	-479.980125	546.591370	545.652802	-455.071991	331.301849	558.891602	-444.354080	563.665863	119.632988	-382.113235	304.463043	119.743008	-382.294785
